<svg xmlns="http://www.w3.org/2000/svg" xmlns:xlink="http://www.w3.org/1999/xlink" viewBox="0 0 264.74 93.88"><defs><style>.cls-1{fill:url(#New_Gradient_Swatch_1);}.cls-2{fill:url(#New_Gradient_Swatch_1-2);}.cls-3{fill:#ffe99d;}.cls-4{fill:url(#New_Gradient_Swatch_1-3);}.cls-5{fill:url(#New_Gradient_Swatch_1-4);}.cls-6{fill:url(#New_Gradient_Swatch_1-5);}.cls-7{fill:url(#New_Gradient_Swatch_1-6);}.cls-8{fill:url(#New_Gradient_Swatch_1-7);}.cls-9{fill:url(#New_Gradient_Swatch_1-8);}.cls-10{fill:url(#New_Gradient_Swatch_1-9);}.cls-11{fill:url(#New_Gradient_Swatch_1-10);}.cls-12{fill:url(#New_Gradient_Swatch_1-11);}.cls-13{fill:url(#New_Gradient_Swatch_1-12);}.cls-14{fill:url(#New_Gradient_Swatch_1-13);}.cls-15{fill:url(#New_Gradient_Swatch_1-14);}.cls-16{fill:url(#New_Gradient_Swatch_1-15);}.cls-17{fill:url(#New_Gradient_Swatch_1-16);}.cls-18{fill:url(#New_Gradient_Swatch_1-17);}.cls-19{fill:url(#New_Gradient_Swatch_1-18);}.cls-20{fill:url(#New_Gradient_Swatch_1-19);}.cls-21{fill:url(#New_Gradient_Swatch_1-20);}.cls-22{fill:url(#New_Gradient_Swatch_1-21);}.cls-23{fill:url(#New_Gradient_Swatch_1-22);}</style><linearGradient id="New_Gradient_Swatch_1" x1="21.55" y1="1" x2="21.55" y2="59.25" gradientUnits="userSpaceOnUse"><stop offset="0" stopColor="#7f3644"/><stop offset="1" stopColor="#b8595a"/></linearGradient><linearGradient id="New_Gradient_Swatch_1-2" x1="21.55" y1="60.25" x2="21.55" y2="0" xlink:href="#New_Gradient_Swatch_1"/><linearGradient id="New_Gradient_Swatch_1-3" x1="55.53" y1="8.71" x2="55.53" y2="44.74" xlink:href="#New_Gradient_Swatch_1"/><linearGradient id="New_Gradient_Swatch_1-4" x1="55.53" y1="45.74" x2="55.53" y2="7.71" xlink:href="#New_Gradient_Swatch_1"/><linearGradient id="New_Gradient_Swatch_1-5" x1="90.4" y1="9.45" x2="90.4" y2="41.99" xlink:href="#New_Gradient_Swatch_1"/><linearGradient id="New_Gradient_Swatch_1-6" x1="90.4" y1="42.99" x2="90.4" y2="8.45" xlink:href="#New_Gradient_Swatch_1"/><linearGradient id="New_Gradient_Swatch_1-7" x1="127.73" y1="8.71" x2="127.73" y2="44.74" xlink:href="#New_Gradient_Swatch_1"/><linearGradient id="New_Gradient_Swatch_1-8" x1="127.73" y1="45.74" x2="127.73" y2="7.71" xlink:href="#New_Gradient_Swatch_1"/><linearGradient id="New_Gradient_Swatch_1-9" x1="161.66" y1="8.71" x2="161.66" y2="41.94" xlink:href="#New_Gradient_Swatch_1"/><linearGradient id="New_Gradient_Swatch_1-10" x1="161.66" y1="42.94" x2="161.66" y2="7.71" xlink:href="#New_Gradient_Swatch_1"/><linearGradient id="New_Gradient_Swatch_1-11" x1="59.63" y1="49.05" x2="59.63" y2="89.99" xlink:href="#New_Gradient_Swatch_1"/><linearGradient id="New_Gradient_Swatch_1-12" x1="59.63" y1="90.99" x2="59.63" y2="48.05" xlink:href="#New_Gradient_Swatch_1"/><linearGradient id="New_Gradient_Swatch_1-13" x1="100.13" y1="58.16" x2="100.13" y2="91.22" xlink:href="#New_Gradient_Swatch_1"/><linearGradient id="New_Gradient_Swatch_1-14" x1="100.13" y1="92.22" x2="100.13" y2="57.16" xlink:href="#New_Gradient_Swatch_1"/><linearGradient id="New_Gradient_Swatch_1-15" x1="135.68" y1="57.59" x2="135.68" y2="90.13" xlink:href="#New_Gradient_Swatch_1"/><linearGradient id="New_Gradient_Swatch_1-16" x1="135.68" y1="91.13" x2="135.68" y2="56.59" xlink:href="#New_Gradient_Swatch_1"/><linearGradient id="New_Gradient_Swatch_1-17" x1="172.53" y1="56.5" x2="172.53" y2="89.99" xlink:href="#New_Gradient_Swatch_1"/><linearGradient id="New_Gradient_Swatch_1-18" x1="172.53" y1="90.99" x2="172.53" y2="55.5" xlink:href="#New_Gradient_Swatch_1"/><linearGradient id="New_Gradient_Swatch_1-19" x1="209.9" y1="57.59" x2="209.9" y2="90.13" xlink:href="#New_Gradient_Swatch_1"/><linearGradient id="New_Gradient_Swatch_1-20" x1="209.9" y1="91.13" x2="209.9" y2="56.59" xlink:href="#New_Gradient_Swatch_1"/><linearGradient id="New_Gradient_Swatch_1-21" x1="248.15" y1="56.85" x2="248.15" y2="92.88" xlink:href="#New_Gradient_Swatch_1"/><linearGradient id="New_Gradient_Swatch_1-22" x1="248.15" y1="93.88" x2="248.15" y2="55.85" xlink:href="#New_Gradient_Swatch_1"/></defs><g id="Layer_2" data-name="Layer 2"><g id="Layer_1-2" data-name="Layer 1"><path class="cls-1" d="M26.39,21.36V53.79l.32,2a3,3,0,0,1,.16.44,3.93,3.93,0,0,0,.39.76l1.09.38,1.31.06-.11,1.85H12v-1.8l1.42-.05L14.48,57l.5-1.2.27-2-.06-30.57L5.75,8.75l-.63-.9a4.34,4.34,0,0,0-.46-.57c-.15-.18-.3-.38-.47-.6A5.46,5.46,0,0,0,3.56,6L2.26,5.2,1,4.77l1.31-.93L3.89,3,7.82,1.76l4.37-.71L16,1l-.65,1-.22,1.2.38,1.31.6,1L24.86,18l2.4-3.6,1.58-3.49L29.5,8.1V6.57l-.06-.88a5.53,5.53,0,0,0-1-1.36l2.35-.93,2.45-.87L35.56,2l2.73-.49,3.82-.28Z"/><path class="cls-2" d="M16,1h0m0,0-.65,1-.22,1.2.38,1.31.6,1L24.86,18l2.4-3.6,1.58-3.49L29.5,8.1V6.57l-.06-.88a5.53,5.53,0,0,0-1-1.36l2.35-.93,2.45-.87L35.56,2l2.73-.49,3.82-.28L26.39,21.36V53.79l.32,2a3,3,0,0,1,.16.44,3.93,3.93,0,0,0,.39.76l1.09.38,1.31.06-.11,1.85H12v-1.8l1.42-.05L14.48,57l.5-1.2.27-2-.06-30.57L5.75,8.75l-.63-.9a4.34,4.34,0,0,0-.46-.57c-.15-.18-.3-.38-.47-.6A5.46,5.46,0,0,0,3.56,6L2.26,5.2,1,4.77l1.31-.93L3.89,3,7.82,1.76l4.37-.71L16,1m0-1h0L12.18.05,12,.07,7.66.78l-.14,0L3.59,2.07a.76.76,0,0,0-.16.06L1.85,3,1.73,3,.42,4a1,1,0,0,0-.41,1,1,1,0,0,0,.66.8l1.17.41L3,6.76a4.52,4.52,0,0,1,.44.52c.18.23.33.44.49.62A.27.27,0,0,0,4,8a5.2,5.2,0,0,1,.35.44l.46.65.17.25L14.2,23.46l.05,30.21L14,55.5l-.28.69-.54.21-1.25.05a1,1,0,0,0-1,1v1.8a1,1,0,0,0,1,1H29.55a1,1,0,0,0,1-.94l.11-1.86a1,1,0,0,0-.26-.73,1,1,0,0,0-.7-.32l-1.16,0-.6-.21a2.31,2.31,0,0,1-.12-.27c-.06-.18-.1-.31-.14-.4l-.29-1.76v-32L42.9,1.89A1,1,0,0,0,42.11.27H42L38.22.55h-.11l-2.73.49-2.33.5-.12,0-2.46.87-2.38.94a1,1,0,0,0-.61.73,1,1,0,0,0,.27.91,4.28,4.28,0,0,1,.71.94l0,.62V8l-.61,2.63-1.51,3.33-1.54,2.32L17,5l-.52-.89-.28-1,.14-.77.51-.76A1,1,0,0,0,17,1a1,1,0,0,0-1-1Zm0,2h0Z"/><path class="cls-3" d="M16,1h0m0,0-.65,1-.22,1.2.38,1.31.6,1L24.86,18l2.4-3.6,1.58-3.49L29.5,8.1V6.57l-.06-.88a5.53,5.53,0,0,0-1-1.36l2.35-.93,2.45-.87L35.56,2l2.73-.49,3.82-.28L26.39,21.36V53.79l.32,2a3,3,0,0,1,.16.44,3.93,3.93,0,0,0,.39.76l1.09.38,1.31.06-.11,1.85H12v-1.8l1.42-.05L14.48,57l.5-1.2.27-2-.06-30.57L5.75,8.75l-.63-.9a4.34,4.34,0,0,0-.46-.57c-.15-.18-.3-.38-.47-.6A5.46,5.46,0,0,0,3.56,6L2.26,5.2,1,4.77l1.31-.93L3.89,3,7.82,1.76l4.37-.71L16,1m0-.75h0L12.18.3h-.11L7.7,1l-.1,0L3.66,2.3l-.11.05L2,3.17l-.09.06L.57,4.16a.74.74,0,0,0-.31.71.77.77,0,0,0,.49.61l1.19.41,1.16.68a4.54,4.54,0,0,1,.49.56c.18.22.33.43.48.62l.06.06a3.62,3.62,0,0,1,.38.47L5,8.93l.17.25,9.32,14.21.05,30.3-.25,1.87-.34.82-.68.27-1.29.05a.76.76,0,0,0-.72.75v1.8A.75.75,0,0,0,12,60H29.55a.75.75,0,0,0,.75-.7l.11-1.86a.79.79,0,0,0-.19-.55.73.73,0,0,0-.53-.24l-1.2,0-.73-.26a2.2,2.2,0,0,1-.18-.39c-.06-.2-.11-.32-.14-.41l-.3-1.81V21.62L42.7,1.74A.76.76,0,0,0,42.11.52h0L38.23.8h-.07l-2.74.49-2.31.49-.1,0-2.45.87-2.38.94a.76.76,0,0,0-.45.55.74.74,0,0,0,.2.68,5,5,0,0,1,.77,1l.05.7V8l-.62,2.68L26.6,14.07,24.84,16.7,16.76,5.13l-.54-.93-.31-1.06.16-.87.54-.82A.7.7,0,0,0,16.76,1,.75.75,0,0,0,16,.25Zm0,1.5h0Z"/><path class="cls-4" d="M59.48,35.39l-5-6-2.8,3.18-1.87,2.63-1.1,2-.35,1.66.35,1a2.64,2.64,0,0,0,.83.53l1.27.17L50.7,42H38.47V40.55a10.25,10.25,0,0,0,1.44-.22L40.7,40l1-.57,1-.87L44,37.36l3.62-4.06,5.2-6.64L43.67,16.05l-1.36-1.23a2.87,2.87,0,0,0-.67-.35l-1.12-.39,1.53-1.31,1.66-1.09,2.19-.83,2.31-.74,4.11-.66a7.51,7.51,0,0,0-.4,1.75,5.22,5.22,0,0,0,.7,1.92l5.16,6.81,1.79-3.18,1.22-2.67.53-2-.14-1.58L60.09,9.45,67,8.93l5.59-.22L59.66,22.6,66,31.07l3.49,3a11.79,11.79,0,0,0,2.19.92l-2.8,2.92-1.35,1.84-1.15,1.74L65.6,43,65,44.74a15.65,15.65,0,0,0-.75-2.1l-.92-1.35Z"/><path class="cls-5" d="M72.58,8.71h0m0,0L59.66,22.6,66,31.07l3.49,3a11.79,11.79,0,0,0,2.19.92l-2.8,2.92-1.35,1.84-1.15,1.74L65.6,43,65,44.74a15.65,15.65,0,0,0-.75-2.1l-.92-1.35-3.88-5.9-5-6-2.8,3.18-1.87,2.63-1.1,2-.35,1.66.35,1a2.64,2.64,0,0,0,.83.53l1.27.17L50.7,42H38.47V40.55a10.25,10.25,0,0,0,1.44-.22L40.7,40l1-.57,1-.87L44,37.36l3.62-4.06,5.2-6.64L43.67,16.05l-1.36-1.23a2.87,2.87,0,0,0-.67-.35l-1.12-.39,1.53-1.31,1.66-1.09,2.19-.83,2.31-.74,4.11-.66a7.51,7.51,0,0,0-.4,1.75,5.22,5.22,0,0,0,.7,1.92l5.16,6.81,1.79-3.18,1.22-2.67.53-2-.14-1.58L60.09,9.45,67,8.93l5.59-.22m-20.26.74h0M72.58,7.71h0L67,7.93,60,8.45a1,1,0,0,0-.86.66,1,1,0,0,0,.23,1.05l.84.83.08,1-.45,1.71-1.18,2.55-1,1.82-4.18-5.52a4.93,4.93,0,0,1-.55-1.39,6.31,6.31,0,0,1,.33-1.39.86.86,0,0,0,.07-.36,1,1,0,0,0-1-1h0l-.14,0-4.09.65-.14,0-2.32.75h-.05l-2.18.83-.2.1-1.66,1.1-.09.07-1.54,1.31a1,1,0,0,0-.33.95,1,1,0,0,0,.67.76l1.08.38a1.88,1.88,0,0,1,.38.18L43,16.75l8.6,9.94-4.68,6-3.56,4L42,37.79l-.92.8-.87.49-.64.29a7.83,7.83,0,0,1-1.14.18,1,1,0,0,0-1,1V42a1,1,0,0,0,1,1H50.7a1,1,0,0,0,1-.94l.09-1.49a1,1,0,0,0-.87-1.05l-1.11-.15a1.47,1.47,0,0,1-.27-.16l-.16-.43.26-1.24,1-1.82,1.82-2.53,2-2.27L58.67,36l3.86,5.85.91,1.34c0,.09.19.47.64,1.86a1,1,0,0,0,1,.7h0a1,1,0,0,0,1-.7l.55-1.71L67.21,42l1.1-1.67,1.3-1.76,2.75-2.88a1,1,0,0,0,.25-.93A1,1,0,0,0,72,34a11,11,0,0,1-1.91-.77l-3.37-2.86L61,22.67,73.29,9.42a1,1,0,0,0-.7-1.71h0Zm0,2h0Z"/><path class="cls-3" d="M72.58,8.71h0m0,0L59.66,22.6,66,31.07l3.49,3a11.79,11.79,0,0,0,2.19.92l-2.8,2.92-1.35,1.84-1.15,1.74L65.6,43,65,44.74a15.65,15.65,0,0,0-.75-2.1l-.92-1.35-3.88-5.9-5-6-2.8,3.18-1.87,2.63-1.1,2-.35,1.66.35,1a2.64,2.64,0,0,0,.83.53l1.27.17L50.7,42H38.47V40.55a10.25,10.25,0,0,0,1.44-.22L40.7,40l1-.57,1-.87L44,37.36l3.62-4.06,5.2-6.64L43.67,16.05l-1.36-1.23a2.87,2.87,0,0,0-.67-.35l-1.12-.39,1.53-1.31,1.66-1.09,2.19-.83,2.31-.74,4.11-.66a7.51,7.51,0,0,0-.4,1.75,5.22,5.22,0,0,0,.7,1.92l5.16,6.81,1.79-3.18,1.22-2.67.53-2-.14-1.58L60.09,9.45,67,8.93l5.59-.22m-20.26.74h0M72.58,8h0L67,8.18,60,8.7a.76.76,0,0,0-.64.49.72.72,0,0,0,.17.79l.9.9.1,1.17-.48,1.78L58.9,16.4l-1.22,2.17-4.42-5.85a4.29,4.29,0,0,1-.59-1.52A6.39,6.39,0,0,1,53,9.73a.87.87,0,0,0,0-.28.75.75,0,0,0-.75-.75h-.14l-4.09.66-.11,0-2.31.74L43.44,11l-.14.07-1.66,1.1-.07,0L40,13.51a.75.75,0,0,0-.25.71.73.73,0,0,0,.5.57c.42.14.79.27,1.08.39a1.61,1.61,0,0,1,.47.23l1.29,1.16,8.74,10.11-4.82,6.15-3.56,4L42.21,38l-.94.82-.91.51-.68.3a8.57,8.57,0,0,1-1.21.19.75.75,0,0,0-.75.75V42a.76.76,0,0,0,.75.75H50.7a.75.75,0,0,0,.75-.71l.09-1.48a.75.75,0,0,0-.65-.79l-1.15-.16a1.69,1.69,0,0,1-.41-.24l-.21-.57.28-1.34,1-1.88L52.25,33l2.19-2.5,4.43,5.32,3.87,5.86.91,1.35A17,17,0,0,1,64.32,45a.73.73,0,0,0,.71.52h0a.73.73,0,0,0,.71-.52l.56-1.74.7-1.39,1.11-1.71,1.3-1.76,2.77-2.89a.75.75,0,0,0-.3-1.23,10.5,10.5,0,0,1-2-.81l-3.4-2.89-5.88-7.9L73.11,9.25a.76.76,0,0,0,.22-.54A.74.74,0,0,0,72.59,8h0Zm0,1.5h0Z"/><path class="cls-6" d="M93.29,42V40.55a5.42,5.42,0,0,0,.89-.07l1-.15.61-.31.52-.52,0-.66a3.28,3.28,0,0,0-.21-1.26l-2.62-7.43-13,5.55-.7,1.92-.48,1.14-.09.74a2.75,2.75,0,0,0,1,.83l1.7.17L82,42H72.58V40.55l1.36-.22,1.31-.44.91-.74.84-.83L87.17,14.74l-.18-1-.39-.7-1.7-.22.87-.83L87,11.24l3.06-1.18,3.45-.61h3.15a6.45,6.45,0,0,0-.61.66,2.41,2.41,0,0,0-.35.5,1.16,1.16,0,0,0-.15.52,7.1,7.1,0,0,0,0,.72v.57L105,38.36l1.45,1.4,1.74.79V42ZM88.44,17,83.72,27.92l7.51-3.27Z"/><path class="cls-7" d="M96.65,9.45a6.45,6.45,0,0,0-.61.66,2.41,2.41,0,0,0-.35.5,1.16,1.16,0,0,0-.15.52,7.1,7.1,0,0,0,0,.72v.57L105,38.36l1.45,1.4,1.74.79V42H93.29V40.55a5.42,5.42,0,0,0,.89-.07l1-.15.61-.31.52-.52,0-.66a3.28,3.28,0,0,0-.21-1.26l-2.62-7.43-13,5.55-.7,1.92-.48,1.14-.09.74a2.75,2.75,0,0,0,1,.83l1.7.17L82,42H72.58V40.55l1.36-.22,1.31-.44.91-.74.84-.83L87.17,14.74l-.18-1-.39-.7-1.7-.22.87-.83L87,11.24l3.06-1.18,3.45-.61h3.15M83.72,27.92l7.51-3.27L88.44,17,83.72,27.92M96.65,8.45H93.5l-.17,0-3.45.61-.18.05-3.06,1.18a.66.66,0,0,0-.19.09l-1.22.79-.15.11-.87.83a1,1,0,0,0-.26,1,1,1,0,0,0,.82.68L86,14l.06.12.09.5-10,23.13-.65.65-.74.6-1.06.35-1.28.21a1,1,0,0,0-.84,1V42a1,1,0,0,0,1,1H82a1,1,0,0,0,1-1l0-1.49a1,1,0,0,0-.9-1l-1.5-.16a1.42,1.42,0,0,1-.3-.2V39l.43-1s0,0,0,0l.55-1.51,11.59-5,2.26,6.42a2.29,2.29,0,0,1,.17.85l0,.3-.14.14-.33.16-.86.13a4.93,4.93,0,0,1-.75.06,1,1,0,0,0-1,1V42a1,1,0,0,0,1,1h14.93a1,1,0,0,0,1-1V40.55a1,1,0,0,0-.59-.91l-1.58-.72-1.16-1.12L96.51,12.24v-.39c0-.26,0-.47,0-.64a1,1,0,0,1,0-.12,2.63,2.63,0,0,1,.25-.35c.13-.15.32-.35.54-.58a1,1,0,0,0,.22-1.09,1,1,0,0,0-.92-.62Zm0,2ZM85.64,26l2.72-6.29L90,24.11,85.64,26Z"/><path class="cls-3" d="M96.65,9.45a6.45,6.45,0,0,0-.61.66,2.41,2.41,0,0,0-.35.5,1.16,1.16,0,0,0-.15.52,7.1,7.1,0,0,0,0,.72v.57L105,38.36l1.45,1.4,1.74.79V42H93.29V40.55a5.42,5.42,0,0,0,.89-.07l1-.15.61-.31.52-.52,0-.66a3.28,3.28,0,0,0-.21-1.26l-2.62-7.43-13,5.55-.7,1.92-.48,1.14-.09.74a2.75,2.75,0,0,0,1,.83l1.7.17L82,42H72.58V40.55l1.36-.22,1.31-.44.91-.74.84-.83L87.17,14.74l-.18-1-.39-.7-1.7-.22.87-.83L87,11.24l3.06-1.18,3.45-.61h3.15M83.72,27.92l7.51-3.27L88.44,17,83.72,27.92M96.65,8.7H93.37l-3.45.61-.13,0-3.07,1.18-.13.07-1.22.79a.47.47,0,0,0-.12.09l-.87.83a.75.75,0,0,0,.43,1.28l1.32.17.15.26.11.62-10,23.24-.7.7-.78.63-1.12.38-1.3.21a.75.75,0,0,0-.63.74V42a.76.76,0,0,0,.75.75H82a.75.75,0,0,0,.75-.73l0-1.49a.74.74,0,0,0-.67-.76l-1.56-.16a2.46,2.46,0,0,1-.49-.34l0-.31.44-1,.6-1.65,11.94-5.1,2.35,6.67a2.52,2.52,0,0,1,.18,1l0,.39-.24.24-.39.2-.91.13a5.22,5.22,0,0,1-.78.06.74.74,0,0,0-.75.75V42a.75.75,0,0,0,.75.75h14.93A.76.76,0,0,0,109,42V40.55a.76.76,0,0,0-.44-.69l-1.63-.73-1.22-1.19L96.26,12.29v-.44c0-.26,0-.49,0-.66a.79.79,0,0,1,.06-.22,4.72,4.72,0,0,1,.27-.39c.14-.16.33-.37.57-.6a.74.74,0,0,0,.16-.81.75.75,0,0,0-.69-.47Zm0,1.5ZM85.16,26.48,88.38,19l1.9,5.21-5.12,2.24Z"/><path class="cls-8" d="M140.44,37.88l-1.36,1.84-1.14,1.74L137.2,43l-.57,1.79a15.65,15.65,0,0,0-.75-2.1L135,41.29l-17.1-24,.26,13.41.35,5.33.26,1.61L119,38.8l.39.87.44.49.48.21.7.13h.65l0,1.49h-9.43V40.55l.87,0,.7-.22.61-.61.52-1.13.44-2.27.31-3,.13-4.19.09-5.46,0-7.07a6.77,6.77,0,0,0-1.62-1.62,14.73,14.73,0,0,0-2.18-.83l.61-1.18.79-1.18,1.26-.91,1.27-.79,3.16-1,3.29-.35.26,2c.06.17.16.42.31.74s.33.73.57,1.22l13.9,18.39-.05-9.13-.17-2.75-.13-2.62-.26-2-.35-1.36-.39-.92-.53-.56-.44-.22-.65-.13-.74-.05-.09-1.61h9.56v1.66h-1l-.83.3-.61.83L140.4,14,140,16.57l-.27,3.76-.17,5.24v6.94L141.05,34a11.79,11.79,0,0,0,2.19.92Z"/><path class="cls-9" d="M122.52,8.71l.26,2c.06.17.16.42.31.74s.33.73.57,1.22l13.9,18.39-.05-9.13-.17-2.75-.13-2.62-.26-2-.35-1.36-.39-.92-.53-.56-.44-.22-.65-.13-.74-.05-.09-1.61h9.56v1.66h-1l-.83.3-.61.83L140.4,14,140,16.57l-.27,3.76-.17,5.24v6.94L141.05,34a11.79,11.79,0,0,0,2.19.92l-2.8,2.92-1.36,1.84-1.14,1.74L137.2,43l-.57,1.79a15.65,15.65,0,0,0-.75-2.1L135,41.29l-17.1-24,.26,13.41.35,5.33.26,1.61L119,38.8l.39.87.44.49.48.21.7.13h.65l0,1.49h-9.43V40.55l.87,0,.7-.22.61-.61.52-1.13.44-2.27.31-3,.13-4.19.09-5.46,0-7.07a6.77,6.77,0,0,0-1.62-1.62,14.73,14.73,0,0,0-2.18-.83l.61-1.18.79-1.18,1.26-.91,1.27-.79,3.16-1,3.29-.35M121.7,40.5h0m.81-32.79h-.11l-3.29.35-.18,0-3.16,1a1.28,1.28,0,0,0-.24.11l-1.26.79a.09.09,0,0,0-.06,0l-1.27.91a1,1,0,0,0-.25.26l-.78,1.18-.06.09-.61,1.18a1,1,0,0,0,.58,1.41,13.7,13.7,0,0,1,2,.74,5.35,5.35,0,0,1,1.13,1.1l0,6.73L114.81,29l-.13,4.15-.3,2.93L114,38.23l-.39.86-.31.31-.35.11-.75,0a1,1,0,0,0-.94,1V42a1,1,0,0,0,1,1h9.43a1,1,0,0,0,1-1l0-1.42a.31.31,0,0,0,0-.1,1,1,0,0,0-1-1h-.57l-.49-.09-.18-.08-.19-.21-.29-.65-.28-1-.24-1.53-.35-5.28-.2-10.12,15.23,21.38.89,1.31c0,.09.19.47.64,1.86a1,1,0,0,0,.95.7h0a1,1,0,0,0,1-.7l.55-1.71.68-1.37,1.1-1.67,1.3-1.76L144,35.65a1,1,0,0,0,.25-.93,1,1,0,0,0-.64-.71,11.83,11.83,0,0,1-1.88-.75l-1.12-1.15V25.57l.17-5.21.26-3.68.37-2.4.45-1.25.34-.47.38-.14h.78a1,1,0,0,0,1-1V9.76a1,1,0,0,0-1-1h-9.56a1,1,0,0,0-.73.31,1,1,0,0,0-.27.74l.09,1.62a1,1,0,0,0,.94.94l.67,0,.46.09.15.08.28.31.3.68L136,14.8l.25,1.86.13,2.58.17,2.74,0,6.09-12-15.91-.1-.2c-.17-.36-.31-.66-.42-.91s-.19-.43-.24-.56l-.25-1.91a1,1,0,0,0-1-.87Z"/><path class="cls-3" d="M122.52,8.71l.26,2c.06.17.16.42.31.74s.33.73.57,1.22l13.9,18.39-.05-9.13-.17-2.75-.13-2.62-.26-2-.35-1.36-.39-.92-.53-.56-.44-.22-.65-.13-.74-.05-.09-1.61h9.56v1.66h-1l-.83.3-.61.83L140.4,14,140,16.57l-.27,3.76-.17,5.24v6.94L141.05,34a11.79,11.79,0,0,0,2.19.92l-2.8,2.92-1.36,1.84-1.14,1.74L137.2,43l-.57,1.79a15.65,15.65,0,0,0-.75-2.1L135,41.29l-17.1-24,.26,13.41.35,5.33.26,1.61L119,38.8l.39.87.44.49.48.21.7.13h.65l0,1.49h-9.43V40.55l.87,0,.7-.22.61-.61.52-1.13.44-2.27.31-3,.13-4.19.09-5.46,0-7.07a6.77,6.77,0,0,0-1.62-1.62,14.73,14.73,0,0,0-2.18-.83l.61-1.18.79-1.18,1.26-.91,1.27-.79,3.16-1,3.29-.35M121.7,40.5h0M122.52,8h-.08l-3.29.35-.14,0-3.16,1-.17.08-1.27.79,0,0-1.26.92a.58.58,0,0,0-.19.19l-.78,1.18a.16.16,0,0,0,0,.07l-.62,1.18a.73.73,0,0,0,0,.63.71.71,0,0,0,.46.42,13.27,13.27,0,0,1,2,.76,5.5,5.5,0,0,1,1.26,1.24l0,6.81-.09,5.45-.13,4.15-.3,3-.42,2.15-.42.93-.39.38-.43.14-.78,0a.75.75,0,0,0-.71.75V42a.75.75,0,0,0,.75.75h9.43a.74.74,0,0,0,.75-.73l0-1.42a.28.28,0,0,0,0-.09.76.76,0,0,0-.75-.75h-.59l-.54-.1-.26-.11-.25-.28-.32-.71-.28-1.08-.25-1.55-.35-5.29-.21-10.95,15.69,22,.9,1.32a16.22,16.22,0,0,1,.66,1.92.75.75,0,0,0,.72.52h0a.74.74,0,0,0,.71-.52l.55-1.74.7-1.39,1.12-1.71,1.3-1.76,2.77-2.89a.81.81,0,0,0,.19-.7.75.75,0,0,0-.49-.53,11,11,0,0,1-1.94-.79l-1.22-1.25V25.57l.17-5.22.26-3.7.38-2.43.46-1.31.41-.56.5-.18h.82a.75.75,0,0,0,.75-.75V9.76a.74.74,0,0,0-.75-.75h-9.56a.75.75,0,0,0-.55.23.76.76,0,0,0-.2.56l.09,1.61a.75.75,0,0,0,.7.71l.69,0,.51.1.22.12.35.37.31.74.33,1.26.25,1.89.13,2.59.18,2.76,0,6.83L124.3,12.29l-.11-.23c-.16-.35-.31-.66-.42-.91a5.73,5.73,0,0,1-.25-.6l-.26-1.94a.74.74,0,0,0-.74-.65Z"/><path class="cls-10" d="M176.82,32.51,176.47,34l-.88,1.88-.91,1.44-1.23,1.22-1.31,1.09-1.39.7L168,41.51l-2,.3a18.84,18.84,0,0,1-2.62.13h-.53a18.35,18.35,0,0,1-2.79-.13l-2.8-.48-4-.87-1.57-.18-1.66,0L148,41l-1.66.91V39.76c0-.14.06-.31.09-.48s.06-.38.09-.61c.14-.41.26-.76.35-1.05a4,4,0,0,1,.22-.65l.78-1.75L149,33.65l1.27-1.49L151.75,31l1.7-1.13a12.32,12.32,0,0,0,.09,1.92L154,33.6l.66,1.36,1.09,1.74,1.36,1.23,1.57,1,1.53.48,2.53.43.92-.23,1.39-.38,1.71-.78,1-1.09.88-1.31.26-1.23.09-1.05v-.91c-.12-.41-.22-.73-.29-1a4.76,4.76,0,0,0-.19-.53l-.88-1.61-1.18-1.09-1.31-1.05-1.92-.66-2.05-.35-2.53-.39c-.39-.06-.86-.16-1.45-.31s-1.28-.33-2.09-.56l-2.41-1.14L151.09,23l-1.31-1.53-.74-1.4-.26-1.31-.09-1.17v-1c.06-.35.12-.64.17-.88a2.76,2.76,0,0,1,.18-.52l.7-1.62.91-1.18L152,11l1.31-.83,1.65-.74,3.89-.74h4l3.8.7,1.65.61,1.58.65,1.48.57,1.36.13,1.22-.26,1.14-.44,1.57-1a6.52,6.52,0,0,1-.22,2.35L176,13.73l-.48,1.09-.92,1.27-1,.44-1.18.22-1.35-.05-1.31-.52-.74-.7-.66-.79-1.27-1.57-1.22-.74-1.22-.61-2.36-.31-2.49-.09a6.15,6.15,0,0,0-1.53.4l-1,.56a3.05,3.05,0,0,0-.66,1l-.39,1.22,0,1.22.4,1.18,1,1.27,1.27,1,2.23.61,2.31.31h1.1a2.51,2.51,0,0,0,.5.06c.21,0,.48,0,.8.11l2.14.31.81.3c.39.15.93.34,1.6.57l1.79.88,1.31,1.09,1.18,1.18,1,1.74.74,1.53L177,31Z"/><path class="cls-11" d="M162.8,8.71l3.8.7,1.65.61,1.58.65,1.48.57,1.36.13,1.22-.26,1.14-.44,1.57-1a6.52,6.52,0,0,1-.22,2.35L176,13.73l-.48,1.09-.92,1.27-1,.44-1.18.22-1.35-.05-1.31-.52-.74-.7-.66-.79-1.27-1.57-1.22-.74-1.22-.61-2.36-.31-2.49-.09a6.15,6.15,0,0,0-1.53.4l-1,.56a3.05,3.05,0,0,0-.66,1l-.39,1.22,0,1.22.4,1.18,1,1.27,1.27,1,2.23.61,2.31.31h1.1a2.51,2.51,0,0,0,.5.06c.21,0,.48,0,.8.11l2.14.31.81.3c.39.15.93.34,1.6.57l1.79.88,1.31,1.09,1.18,1.18,1,1.74.74,1.53L177,31l-.17,1.53L176.47,34l-.88,1.88-.91,1.44-1.23,1.22-1.31,1.09-1.39.7L168,41.51l-2,.3a18.84,18.84,0,0,1-2.62.13h-.53a18.35,18.35,0,0,1-2.79-.13l-2.8-.48-4-.87-1.57-.18-1.66,0L148,41l-1.66.91V39.76c0-.14.06-.31.09-.48s.06-.38.09-.61c.14-.41.26-.76.35-1.05a4,4,0,0,1,.22-.65l.78-1.75L149,33.65l1.27-1.49L151.75,31l1.7-1.13a12.32,12.32,0,0,0,.09,1.92L154,33.6l.66,1.36,1.09,1.74,1.36,1.23,1.57,1,1.53.48,2.53.43.92-.23,1.39-.38,1.71-.78,1-1.09.88-1.31.26-1.23.09-1.05v-.91c-.12-.41-.22-.73-.29-1a4.76,4.76,0,0,0-.19-.53l-.88-1.61-1.18-1.09-1.31-1.05-1.92-.66-2.05-.35-2.53-.39c-.39-.06-.86-.16-1.45-.31s-1.28-.33-2.09-.56l-2.41-1.14L151.09,23l-1.31-1.53-.74-1.4-.26-1.31-.09-1.17v-1c.06-.35.12-.64.17-.88a2.76,2.76,0,0,1,.18-.52l.7-1.62.91-1.18L152,11l1.31-.83,1.65-.74,3.89-.74h4m13.8.92h0M162.8,7.71h-4l-.19,0-3.88.74a1,1,0,0,0-.23.07l-1.65.74-.13.07-1.31.83a.75.75,0,0,0-.17.14L150,11.63l-.08.09L149,12.9a1,1,0,0,0-.13.22l-.69,1.59a3.92,3.92,0,0,0-.23.69c-.07.27-.13.58-.2,1a.91.91,0,0,0,0,.17v1.12l.09,1.18a.5.5,0,0,0,0,.12l.26,1.31a.79.79,0,0,0,.1.27l.74,1.4a.57.57,0,0,0,.12.18l1.31,1.53a.75.75,0,0,0,.16.15L152.06,25a.64.64,0,0,0,.18.1l2.4,1.14.15.06c.9.25,1.57.44,2.13.57s1.14.27,1.54.33l2.52.39,2,.33,1.68.58,1.15.91,1,1,.8,1.47h0s0,.1.12.35l.24.8v.73l-.08,1-.21,1-.73,1.09-.81.88-1.45.67-1.31.35-.7.18-2.26-.39L159.06,38l-1.38-.85-1.18-1.07-1-1.58-.58-1.2-.41-1.73a13.37,13.37,0,0,1-.06-1.69,1,1,0,0,0-.53-.88,1,1,0,0,0-.47-.12.92.92,0,0,0-.55.17l-1.71,1.13-.05,0-1.53,1.18a.67.67,0,0,0-.15.14L148.19,33l-.06.08L147,34.65a.51.51,0,0,0-.09.16l-.79,1.75a6.84,6.84,0,0,0-.26.77c-.09.29-.2.62-.33,1a.79.79,0,0,0-.06.22c0,.22,0,.41-.08.57s-.05.31-.08.45a1.23,1.23,0,0,0,0,.19v2.18a1,1,0,0,0,.49.87,1.06,1.06,0,0,0,1,0l1.59-.88,1.84-.69,1.43,0,1.48.17,3.92.86,2.84.49a18.92,18.92,0,0,0,3,.14h.53a19.31,19.31,0,0,0,2.77-.14l2-.3a1,1,0,0,0,.23-.07l2.75-1.13.06,0,1.4-.7.19-.13,1.31-1.09.07-.06,1.22-1.22a.75.75,0,0,0,.14-.17l.92-1.44.06-.12.87-1.88a1.18,1.18,0,0,0,.07-.2l.35-1.52a.5.5,0,0,0,0-.12L178,31.1a1.22,1.22,0,0,0,0-.27l-.48-3.1a1.15,1.15,0,0,0-.09-.28l-.74-1.53,0-.05-1-1.75a.87.87,0,0,0-.17-.22l-1.17-1.18-.07-.06L173,21.57a.86.86,0,0,0-.2-.13l-1.8-.88-.1,0L169.28,20l-.78-.3a1.05,1.05,0,0,0-.24-.06l-2.13-.31c-.31-.05-.62-.09-.88-.11a2.85,2.85,0,0,1-.32,0,1.07,1.07,0,0,0-.25,0h-1l-2.18-.29-2-.54-1-.78-.85-1-.29-.87,0-.9.34-1a.25.25,0,0,0,0-.07h0a4.58,4.58,0,0,1,.33-.46l.85-.48a5.51,5.51,0,0,1,1.11-.26l2.34.08,2.14.28,1,.51,1,.63,1.16,1.44.67.8.08.09.74.7a1,1,0,0,0,.32.19l1.31.53a.93.93,0,0,0,.33.07l1.36,0h0l.18,0,1.18-.22a1.09,1.09,0,0,0,.24-.07l1-.44a1,1,0,0,0,.39-.32l.92-1.27a1.62,1.62,0,0,0,.1-.18l.49-1.09a.83.83,0,0,0,.06-.21l.33-1.62a7.86,7.86,0,0,0,.26-2.61V9.63a1,1,0,0,0-1-1h0a1,1,0,0,0-.56.17l-1.47,1-1,.37-1,.21-1.07-.1-1.35-.52-1.55-.64-1.7-.63-.16-.05L163,7.73a.55.55,0,0,0-.18,0Z"/><path class="cls-3" d="M162.8,8.71l3.8.7,1.65.61,1.58.65,1.48.57,1.36.13,1.22-.26,1.14-.44,1.57-1a6.52,6.52,0,0,1-.22,2.35L176,13.73l-.48,1.09-.92,1.27-1,.44-1.18.22-1.35-.05-1.31-.52-.74-.7-.66-.79-1.27-1.57-1.22-.74-1.22-.61-2.36-.31-2.49-.09a6.15,6.15,0,0,0-1.53.4l-1,.56a3.05,3.05,0,0,0-.66,1l-.39,1.22,0,1.22.4,1.18,1,1.27,1.27,1,2.23.61,2.31.31h1.1a2.51,2.51,0,0,0,.5.06c.21,0,.48,0,.8.11l2.14.31.81.3c.39.15.93.34,1.6.57l1.79.88,1.31,1.09,1.18,1.18,1,1.74.74,1.53L177,31l-.17,1.53L176.47,34l-.88,1.88-.91,1.44-1.23,1.22-1.31,1.09-1.39.7L168,41.51l-2,.3a18.84,18.84,0,0,1-2.62.13h-.53a18.35,18.35,0,0,1-2.79-.13l-2.8-.48-4-.87-1.57-.18-1.66,0L148,41l-1.66.91V39.76c0-.14.06-.31.09-.48s.06-.38.09-.61c.14-.41.26-.76.35-1.05a4,4,0,0,1,.22-.65l.78-1.75L149,33.65l1.27-1.49L151.75,31l1.7-1.13a12.32,12.32,0,0,0,.09,1.92L154,33.6l.66,1.36,1.09,1.74,1.36,1.23,1.57,1,1.53.48,2.53.43.92-.23,1.39-.38,1.71-.78,1-1.09.88-1.31.26-1.23.09-1.05v-.91c-.12-.41-.22-.73-.29-1a4.76,4.76,0,0,0-.19-.53l-.88-1.61-1.18-1.09-1.31-1.05-1.92-.66-2.05-.35-2.53-.39c-.39-.06-.86-.16-1.45-.31s-1.28-.33-2.09-.56l-2.41-1.14L151.09,23l-1.31-1.53-.74-1.4-.26-1.31-.09-1.17v-1c.06-.35.12-.64.17-.88a2.76,2.76,0,0,1,.18-.52l.7-1.62.91-1.18L152,11l1.31-.83,1.65-.74,3.89-.74h4m13.8.92h0M162.8,8h-4.12l-3.89.75a.49.49,0,0,0-.16,0L153,9.51l-.09.05-1.31.83a.45.45,0,0,0-.13.1l-1.32,1.31-.06.07-.91,1.18a.59.59,0,0,0-.1.17l-.69,1.59a3,3,0,0,0-.22.66,8.81,8.81,0,0,0-.19.93.53.53,0,0,0,0,.13v1.1l.09,1.18s0,.06,0,.09l.27,1.31a.58.58,0,0,0,.07.21l.74,1.39a.42.42,0,0,0,.09.14l1.31,1.53.12.11,1.57,1.18.13.08,2.4,1.13.12.05c.89.25,1.57.43,2.12.57s1.12.26,1.51.32l2.53.39,2,.34,1.74.59,1.18,1,1.07,1,.82,1.51a3.93,3.93,0,0,1,.14.39c.06.21.14.49.25.84v.78l-.09,1-.22,1-.76,1.14-.86.94-1.51.7-1.34.35-.75.2-2.33-.4L159,38.2l-1.43-.88-1.23-1.1-1-1.63-.61-1.24-.41-1.76a11.83,11.83,0,0,1-.07-1.74.75.75,0,0,0-.39-.66.8.8,0,0,0-.36-.09.75.75,0,0,0-.41.12l-1.71,1.14,0,0-1.53,1.18-.11.11-1.27,1.48,0,.06-1.1,1.57-.06.12-.79,1.75c-.08.2-.16.44-.25.74s-.2.63-.34,1a.75.75,0,0,0,0,.16c0,.22-.06.41-.08.58s-.06.32-.08.46a.59.59,0,0,0,0,.14v2.18a.74.74,0,0,0,.75.75.81.81,0,0,0,.37-.09l1.61-.89,1.9-.71,1.48,0,1.51.17,3.93.87,2.83.48a18.39,18.39,0,0,0,2.92.14h.53a20.49,20.49,0,0,0,2.73-.13l2-.31a.48.48,0,0,0,.17,0L171,41.07l.05,0,1.4-.7a.42.42,0,0,0,.14-.09l1.31-1.09.06,0,1.22-1.22a.64.64,0,0,0,.1-.13l.92-1.44a.36.36,0,0,0,0-.09l.88-1.87,0-.15.35-1.53s0-.06,0-.08l.18-1.53a1.27,1.27,0,0,0,0-.2l-.48-3.1a.79.79,0,0,0-.06-.22L176.44,26l-1-1.79a.61.61,0,0,0-.12-.16l-1.18-1.18,0,0-1.31-1.09-.15-.1-1.79-.87-.09,0c-.66-.23-1.19-.41-1.57-.56l-.8-.3-.17,0-2.14-.31a5.63,5.63,0,0,0-.86-.11,1.33,1.33,0,0,1-.36-.05l-.19,0h-1.05l-2.21-.3-2-.55-1.08-.82-.91-1.1-.31-.94,0-1,.36-1.1a.43.43,0,0,1,0-.05,2,2,0,0,1,.41-.6l.89-.5a5.23,5.23,0,0,1,1.21-.29l2.38.08,2.2.28,1.08.54,1.08.66,1.18,1.47.67.8.06.06.75.7a.51.51,0,0,0,.23.15l1.31.53a.74.74,0,0,0,.25.05l1.36,0h0l.14,0,1.18-.22.17-.05,1-.44a.78.78,0,0,0,.3-.24l.92-1.27a.54.54,0,0,0,.07-.13l.49-1.1a.88.88,0,0,0,.05-.15l.33-1.65a7.5,7.5,0,0,0,.25-2.54V9.63a.74.74,0,0,0-.75-.75h0a.75.75,0,0,0-.42.13l-1.49,1-1,.39-1,.23-1.14-.12L170.1,10l-1.56-.64-1.69-.63-.12,0-3.8-.7Z"/><path class="cls-12" d="M80.73,90H62V87.87l1.47-.06.49-.21a6.76,6.76,0,0,1,.65-.23l.55-1.2.38-2-.16-.76-.22-1.2L64.73,81l-.65-1.58-.88-1.69-1.15-1.69-1.36-1.59-1.64-1.36-1.63-.93-2.24-.71-2.57-.33L52.5,84.53,52.67,86l.27,1,1.2.93,2,.06-.06,2H38.47V88.08l1.37,0,1.31-.49.43-1L42,84.37,42,54.13c-.07-.3-.1-.42-.1-.38l-.22-1a4,4,0,0,0-1.2-1l-1.91-.16-.06-1.75H56.05v1.8l-1.42,0a2.14,2.14,0,0,0-1.15.39l-.6,1.2-.27,2L52.5,68.65l2.08-6,1.09-2.45L57,57.73l1.31-2,1.53-2,1.63-1.47,1.75-1.48,2.46-.82,2-.44,2.18.39,1.42.33,1.2.16L74.06,50l2-.93.22,1.31.06.87-.28,2.08-.92,1.75L73.9,56.64l-1.69,1-1.69.65H69.43l-1,0-.25,0-.35-.08L67,57.84H64.62L63.25,58l-1.68.93L60,60,58.5,61.77l-1.3,1.91-1.15,2.46L55,68.7a23.8,23.8,0,0,1,3.44.17l2.68.43,2.73.77c.18,0,.46.11.84.22a15.51,15.51,0,0,1,1.5.54L68.44,72l.74.44c.31.18.66.4,1.06.66L72,74.6l1.64,1.53,2,3L76.85,82l.43,2.51L77.34,86l.33,1,1.2.93,1.91.06Z"/><path class="cls-13" d="M76.08,49.05l.22,1.31.06.87-.28,2.08-.92,1.75L73.9,56.64l-1.69,1-1.69.65H69.43l-1,0-.25,0-.35-.08L67,57.84H64.62L63.25,58l-1.68.93L60,60,58.5,61.77l-1.3,1.91-1.15,2.46L55,68.7a23.8,23.8,0,0,1,3.44.17l2.68.43,2.73.77c.18,0,.46.11.84.22a15.51,15.51,0,0,1,1.5.54L68.44,72l.74.44c.31.18.66.4,1.06.66L72,74.6l1.64,1.53,2,3L76.85,82l.43,2.51L77.34,86l.33,1,1.2.93,1.91.06,0,2H62V87.87l1.47-.06.49-.21a6.76,6.76,0,0,1,.65-.23l.55-1.2.38-2-.16-.76-.22-1.2L64.73,81l-.65-1.58-.88-1.69-1.15-1.69-1.36-1.59-1.64-1.36-1.63-.93-2.24-.71-2.57-.33L52.5,84.53,52.67,86l.27,1,1.2.93,2,.06-.06,2H38.47V88.08l1.37,0,1.31-.49.43-1L42,84.37,42,54.13a2.54,2.54,0,0,0-.1-.39h0l-.22-1a4,4,0,0,0-1.2-1l-1.91-.16-.06-1.75H56.05v1.8l-1.42,0a2.14,2.14,0,0,0-1.15.39l-.6,1.2-.27,2L52.5,68.65l2.08-6,1.09-2.45L57,57.73l1.31-2,1.53-2,1.63-1.47,1.75-1.48,2.46-.82,2-.44,2.18.39,1.42.33,1.2.16L74.06,50l2-.93m0-1a1,1,0,0,0-.41.09L73.73,49l-1.3.31-1-.13-1.37-.32H70l-2.18-.38-.17,0-.21,0-2,.44-.11,0-2.46.82a.94.94,0,0,0-.32.19l-1.75,1.47L59.15,53a.86.86,0,0,0-.13.14l-1.53,2a.15.15,0,0,0,0,.06l-1.31,2,0,.07-1.31,2.46,0,.06-1.09,2.46,0,.08-.08.23.06-7.2.24-1.74.39-.78a1,1,0,0,1,.39-.11l1.46,0a1,1,0,0,0,1-1v-1.8a1,1,0,0,0-1-1H38.47a1,1,0,0,0-1,1l.06,1.75a1,1,0,0,0,.91,1l1.69.15a2.71,2.71,0,0,1,.59.47l.16.74a1,1,0,0,0,0,.16,1,1,0,0,1,0,.12l.06,30-.4,2-.22.5-.76.29-1.21,0a1,1,0,0,0-1,1V90a1,1,0,0,0,1,1H56.05a1,1,0,0,0,1-1l.06-2a1,1,0,0,0-1-1l-1.64,0-.68-.53-.16-.58-.15-1.34.1-12.18,1.36.17,2,.65,1.47.83L60,75.2l1.27,1.48,1.08,1.6.83,1.6.62,1.51.35,1,.2,1.13.13.59-.32,1.71-.31.68-.31.12-.36.15-1.26.05a1,1,0,0,0-1,1V90a1,1,0,0,0,1,1H80.73a1,1,0,0,0,1-1l0-2a1,1,0,0,0-1-1l-1.58,0-.7-.54-.19-.61-.06-1.34a.57.57,0,0,0,0-.13l-.44-2.51a.83.83,0,0,0-.06-.21l-1.2-2.89a.69.69,0,0,0-.1-.19l-2-3a1.07,1.07,0,0,0-.14-.16l-1.63-1.53,0,0-1.75-1.48-.11-.08-1.09-.67L69,71.18l0,0L66.68,70l-.1,0a14.44,14.44,0,0,0-1.6-.58c-.41-.12-.68-.19-.89-.23l-2.69-.76-.11,0-2.68-.44a17.39,17.39,0,0,0-2.12-.16L57,66.54l1.1-2.36,1.23-1.8,1.36-1.61,1.43-1L63.56,59l1.12-.13h2.1l.64.26.1,0,.43.1a3.26,3.26,0,0,0,.41.05l1,0h1.15a.92.92,0,0,0,.36-.07l1.69-.65a.8.8,0,0,0,.16-.08l1.7-1a1.13,1.13,0,0,0,.26-.23l1.25-1.58a1.3,1.3,0,0,0,.1-.15L77,53.78a1.35,1.35,0,0,0,.11-.34l.27-2.08a1.21,1.21,0,0,0,0-.19l-.06-.88s0-.06,0-.09l-.22-1.31a1,1,0,0,0-.52-.72.94.94,0,0,0-.47-.12Z"/><path class="cls-3" d="M76.08,49.05l.22,1.31.06.87-.28,2.08-.92,1.75L73.9,56.64l-1.69,1-1.69.65H69.43l-1,0-.25,0-.35-.08L67,57.84H64.62L63.25,58l-1.68.93L60,60,58.5,61.77l-1.3,1.91-1.15,2.46L55,68.7a23.8,23.8,0,0,1,3.44.17l2.68.43,2.73.77c.18,0,.46.11.84.22a15.51,15.51,0,0,1,1.5.54L68.44,72l.74.44c.31.18.66.4,1.06.66L72,74.6l1.64,1.53,2,3L76.85,82l.43,2.51L77.34,86l.33,1,1.2.93,1.91.06,0,2H62V87.87l1.47-.06.49-.21a6.76,6.76,0,0,1,.65-.23l.55-1.2.38-2-.16-.76-.22-1.2L64.73,81l-.65-1.58-.88-1.69-1.15-1.69-1.36-1.59-1.64-1.36-1.63-.93-2.24-.71-2.57-.33L52.5,84.53,52.67,86l.27,1,1.2.93,2,.06-.06,2H38.47V88.08l1.37,0,1.31-.49.43-1L42,84.37,42,54.13a2.54,2.54,0,0,0-.1-.39h0l-.22-1a4,4,0,0,0-1.2-1l-1.91-.16-.06-1.75H56.05v1.8l-1.42,0a2.14,2.14,0,0,0-1.15.39l-.6,1.2-.27,2L52.5,68.65l2.08-6,1.09-2.45L57,57.73l1.31-2,1.53-2,1.63-1.47,1.75-1.48,2.46-.82,2-.44,2.18.39,1.42.33,1.2.16L74.06,50l2-.93m0-.75a.7.7,0,0,0-.31.07l-2,.9-1.38.33-1-.14L70,49.14l-2.22-.39-.13,0-.16,0-2,.44-.08,0L63,50a.72.72,0,0,0-.24.14L61,51.64l-1.66,1.5-.09.1-1.53,2,0,0-1.31,2,0,.06L55,59.83a.08.08,0,0,1,0,.05l-1.09,2.46s0,0,0,.06l-.58,1.68.07-8.75.25-1.8.45-.89a1.26,1.26,0,0,1,.57-.17l1.45,0a.76.76,0,0,0,.72-.75v-1.8a.75.75,0,0,0-.75-.75H38.47a.79.79,0,0,0-.54.22.81.81,0,0,0-.21.55l.06,1.75a.74.74,0,0,0,.68.72l1.75.15a3.08,3.08,0,0,1,.73.6l.19.8a.74.74,0,0,0,0,.14,1.46,1.46,0,0,1,0,.17l.06,30.08-.41,2-.27.62-.9.34-1.25,0a.76.76,0,0,0-.72.75V90a.75.75,0,0,0,.75.75H56.05A.75.75,0,0,0,56.8,90l.06-2a.75.75,0,0,0-.73-.77l-1.73,0-.81-.63-.18-.68-.16-1.37L53.35,72l1.67.22,2.09.66,1.51.85L60.16,75l1.3,1.5,1.09,1.62.84,1.63L64,81.3l.35,1.07.21,1.15.14.64L64.39,86l-.37.81-.4.14-.39.17-1.31.05a.74.74,0,0,0-.72.75V90a.74.74,0,0,0,.75.75H80.73a.75.75,0,0,0,.75-.73l0-2a.74.74,0,0,0-.73-.77l-1.66,0-.83-.64-.22-.71L78,84.45a.38.38,0,0,0,0-.1l-.43-2.51a1,1,0,0,0,0-.16l-1.2-2.89a.91.91,0,0,0-.07-.14l-2-3-.11-.12-1.63-1.53-1.78-1.5-.09-.06q-.6-.39-1.08-.66l-.73-.44-2.27-1.22-.07,0c-.64-.26-1.17-.45-1.58-.57s-.68-.19-.88-.23l-2.7-.76-.08,0-2.68-.43A17.48,17.48,0,0,0,56.12,68l.62-1.54,1.11-2.37,1.25-1.83,1.39-1.64,1.47-1,1.53-.84,1.18-.14h2.15l.69.27.08,0,.4.1a3.18,3.18,0,0,0,.4,0l1,0h1.13a.86.86,0,0,0,.27,0l1.69-.65.12-.06,1.7-1a.81.81,0,0,0,.19-.18l1.25-1.58a.44.44,0,0,0,.08-.11l.93-1.75a.73.73,0,0,0,.08-.25l.27-2.08a.76.76,0,0,0,0-.15l-.06-.87a.17.17,0,0,0,0-.07l-.22-1.31a.74.74,0,0,0-.74-.63Z"/><path class="cls-14" d="M112.25,91.22l-.68-.44c-.22-.15-.44-.29-.68-.43a4.7,4.7,0,0,0-1.53-.22H86V88.69l1.23,0a3.76,3.76,0,0,1,.39-.17,5.12,5.12,0,0,1,.52-.18l.44-1,.26-1.62,0-24.19c-.06-.23-.09-.34-.09-.3l-.17-.79-1-.75L86,59.51l0-1.35H100v1.39l-1.14.05a1.75,1.75,0,0,0-.92.3l-.48,1-.22,1.58-.08,26.25h1c.23,0,.45,0,.65,0a4.54,4.54,0,0,0,.57-.06l2.4-.39,2-.44,1.2-.35c.36-.12.7-.25,1-.39l1.7-.84,1.62-.91L110.76,84l1.14-1.26.69-1.23.7-1.83,1,1Z"/><path class="cls-15" d="M100,58.16v1.39l-1.14.05a1.75,1.75,0,0,0-.92.3l-.48,1-.22,1.58-.08,26.25h1c.23,0,.45,0,.65,0a4.54,4.54,0,0,0,.57-.06l2.4-.39,2-.44,1.2-.35c.36-.12.7-.25,1-.39l1.7-.84,1.62-.91L110.76,84l1.14-1.26.69-1.23.7-1.83,1,1-2,10.53-.68-.44c-.22-.15-.44-.29-.68-.43a4.7,4.7,0,0,0-1.53-.22H86V88.69l1.23,0a3.76,3.76,0,0,1,.39-.17,5.12,5.12,0,0,1,.52-.18l.44-1,.26-1.62,0-24.19a1.31,1.31,0,0,0-.09-.31h0l-.17-.79-1-.75L86,59.51l0-1.35H100m0-1H86a1,1,0,0,0-1,1l0,1.35a1,1,0,0,0,.88,1l1.25.15.46.35.1.44c0,.05,0,.1,0,.15l0,0,0,24L87.57,87l-.2.43-.17.06-.26.12-1,0a1,1,0,0,0-1,1v1.44a1,1,0,0,0,1,1h23.41a4.08,4.08,0,0,1,1.11.13l.55.35.7.46a1,1,0,0,0,.53.15.89.89,0,0,0,.39-.09,1,1,0,0,0,.59-.72l2-10.53A1,1,0,0,0,115,80l-1-1a1,1,0,0,0-.71-.29.65.65,0,0,0-.2,0,1,1,0,0,0-.73.62l-.67,1.76-.61,1.07-1,1.13-1.36,1.17-1.51.85-1.67.82a7.15,7.15,0,0,1-.89.33c-.36.12-.74.23-1.16.34l-1.89.42-2.38.39c-.15,0-.31,0-.49.06l-.53,0,.08-25.18.19-1.35.27-.53a.41.41,0,0,1,.16,0l1.17-.05a1,1,0,0,0,1-1V58.16a1,1,0,0,0-1-1Z"/><path class="cls-3" d="M100,58.16v1.39l-1.14.05a1.75,1.75,0,0,0-.92.3l-.48,1-.22,1.58-.08,26.25h1c.23,0,.45,0,.65,0a4.54,4.54,0,0,0,.57-.06l2.4-.39,2-.44,1.2-.35c.36-.12.7-.25,1-.39l1.7-.84,1.62-.91L110.76,84l1.14-1.26.69-1.23.7-1.83,1,1-2,10.53-.68-.44c-.22-.15-.44-.29-.68-.43a4.7,4.7,0,0,0-1.53-.22H86V88.69l1.23,0a3.76,3.76,0,0,1,.39-.17,5.12,5.12,0,0,1,.52-.18l.44-1,.26-1.62,0-24.19a1.31,1.31,0,0,0-.09-.31h0l-.17-.79-1-.75L86,59.51l0-1.35H100m0-.75H86a.75.75,0,0,0-.53.22.72.72,0,0,0-.21.55l0,1.35a.74.74,0,0,0,.66.72l1.32.16.58.44.12.53s0,.09,0,.13l0,.1,0,24-.23,1.45-.26.57-.25.09a3,3,0,0,0-.3.13l-1.07,0a.74.74,0,0,0-.73.75v1.44a.76.76,0,0,0,.75.75h23.41a4.35,4.35,0,0,1,1.21.15l.59.38.69.44a.72.72,0,0,0,.4.12.66.66,0,0,0,.3-.07.74.74,0,0,0,.43-.54L115,80.84a.77.77,0,0,0-.21-.68l-1-1a.71.71,0,0,0-.53-.22h-.15a.77.77,0,0,0-.55.47l-.68,1.78-.63,1.11-1,1.16-1.38,1.19-1.56.88-1.66.81a8.35,8.35,0,0,1-.92.35c-.36.12-.75.23-1.17.34l-1.94.43-2.36.39-.51.06-.59,0h-.21L98,62.49l.2-1.4.32-.65a.86.86,0,0,1,.35-.09L100,60.3a.74.74,0,0,0,.73-.75V58.16a.75.75,0,0,0-.75-.75Z"/><path class="cls-16" d="M138.56,90.13V88.69a7.09,7.09,0,0,0,.9-.07l1-.15.61-.31.53-.52,0-.66a3.21,3.21,0,0,0-.22-1.27l-2.62-7.42-13,5.55-.7,1.92-.48,1.13-.09.75a3,3,0,0,0,1,.83l1.71.17,0,1.49h-9.43V88.69l1.35-.22,1.32-.44.91-.74.83-.83,10.18-23.59-.18-1-.39-.69-1.7-.22.87-.83,1.22-.79,3.06-1.18,3.45-.61h3.15c-.27.26-.47.48-.62.65a4.26,4.26,0,0,0-.35.51,1.31,1.31,0,0,0-.15.52c0,.19,0,.43,0,.72v.57l9.52,25.94,1.44,1.4,1.75.79v1.44Zm-4.85-25L129,76.06l7.51-3.27Z"/><path class="cls-17" d="M141.93,57.59c-.27.26-.47.48-.62.65a4.26,4.26,0,0,0-.35.51,1.31,1.31,0,0,0-.15.52c0,.19,0,.43,0,.72v.57l9.52,25.94,1.44,1.4,1.75.79v1.44H138.56V88.69a7.09,7.09,0,0,0,.9-.07l1-.15.61-.31.53-.52,0-.66a3.21,3.21,0,0,0-.22-1.27l-2.62-7.42-13,5.55-.7,1.92-.48,1.13-.09.75a3,3,0,0,0,1,.83l1.71.17,0,1.49h-9.43V88.69l1.35-.22,1.32-.44.91-.74.83-.83,10.18-23.59-.18-1-.39-.69-1.7-.22.87-.83,1.22-.79,3.06-1.18,3.45-.61h3.15M129,76.06l7.51-3.27-2.8-7.65L129,76.06m12.93-19.47h-3.32l-3.46.62a.61.61,0,0,0-.18.05l-3.06,1.18a.76.76,0,0,0-.18.09l-1.22.78-.15.12-.87.83a1,1,0,0,0,.56,1.72l1.2.15.07.12.09.49-10,23.14-.66.65-.73.6-1.07.35-1.27.21a1,1,0,0,0-.84,1v1.44a1,1,0,0,0,1,1h9.43a1,1,0,0,0,1-1l0-1.48a1,1,0,0,0-.89-1l-1.51-.16a2.23,2.23,0,0,1-.3-.2l0-.14.42-1,.57-1.56,11.59-5,2.27,6.42a2.55,2.55,0,0,1,.17.84l0,.31-.15.14-.33.16-.85.13a5,5,0,0,1-.76.06,1,1,0,0,0-1,1v1.44a1,1,0,0,0,1,1H153.5a1,1,0,0,0,1-1V88.69a1,1,0,0,0-.59-.92l-1.59-.71-1.15-1.12-9.38-25.56V60a6.13,6.13,0,0,1,0-.65.27.27,0,0,1,0-.12,3.21,3.21,0,0,1,.24-.34c.12-.14.3-.34.55-.58a1,1,0,0,0,.22-1.09,1,1,0,0,0-.92-.62Zm0,2Zm-11,15.54,2.71-6.29,1.62,4.41-4.33,1.88Z"/><path class="cls-3" d="M141.93,57.59c-.27.26-.47.48-.62.65a4.26,4.26,0,0,0-.35.51,1.31,1.31,0,0,0-.15.52c0,.19,0,.43,0,.72v.57l9.52,25.94,1.44,1.4,1.75.79v1.44H138.56V88.69a7.09,7.09,0,0,0,.9-.07l1-.15.61-.31.53-.52,0-.66a3.21,3.21,0,0,0-.22-1.27l-2.62-7.42-13,5.55-.7,1.92-.48,1.13-.09.75a3,3,0,0,0,1,.83l1.71.17,0,1.49h-9.43V88.69l1.35-.22,1.32-.44.91-.74.83-.83,10.18-23.59-.18-1-.39-.69-1.7-.22.87-.83,1.22-.79,3.06-1.18,3.45-.61h3.15M129,76.06l7.51-3.27-2.8-7.65L129,76.06m12.93-19.22h-3.28l-3.45.61-.14,0L132,58.68l-.13.07-1.23.78-.11.09-.87.83a.75.75,0,0,0-.2.78.76.76,0,0,0,.62.51l1.33.17.15.26.11.61L121.64,86l-.7.7-.78.63-1.13.38-1.29.21a.75.75,0,0,0-.63.74v1.44a.76.76,0,0,0,.75.75h9.43a.75.75,0,0,0,.75-.73l0-1.49a.75.75,0,0,0-.67-.77l-1.56-.16a2.24,2.24,0,0,1-.48-.33l0-.31.43-1,.61-1.65,11.93-5.11L140.73,86a2.44,2.44,0,0,1,.19,1l0,.4-.24.23-.4.2-.9.14a5.35,5.35,0,0,1-.79.06.75.75,0,0,0-.75.75v1.44a.76.76,0,0,0,.75.75H153.5a.76.76,0,0,0,.75-.75V88.69a.75.75,0,0,0-.44-.69l-1.63-.73L151,86.08l-9.41-25.66V60a6.24,6.24,0,0,1,0-.66.6.6,0,0,1,.06-.23,2.28,2.28,0,0,1,.27-.38,8.2,8.2,0,0,1,.56-.6.74.74,0,0,0-.52-1.28Zm0,1.5ZM130.44,74.62l3.21-7.45,1.91,5.21-5.12,2.24Z"/><path class="cls-18" d="M188,73l-.83.47-.74.53-.31.88-.17,1.17,0,5.29.13,1.27.22.78a5.58,5.58,0,0,0,1.18.74l1.57.14-4.67,2.35-2.8,1.14-2.18.83-2.1.57-2,.48-1.53.26-2.36.08-3.15-.26-1.57-.3L165.37,89l-1.71-.78-1.35-.88-1.18-.83-1.09-1L159,84.32l-1.27-1.66-1.75-3-.52-1.44c-.06-.24-.13-.5-.22-.81s-.19-.66-.31-1.07l-.21-1.66-.09-2c0-.18.06-.42.09-.73s.07-.67.13-1.11a7.64,7.64,0,0,1,.31-1.84l.69-2,.88-1.93,1-1.53L159,62l1.39-1.27,1.88-1.39,1.88-1,2.4-1,2-.48,2-.39h1c-.08,0,0,0,.13,0l.88.06,1.88.13,1.83.49,1.75.61,3.27,1.7a4.9,4.9,0,0,1,.48.22l.61.3,1.1.22,1.18-.26,1.13-.44,1.66-1.18-.13,3.28L187,63l-.35,1.09-.65.88-.7.65-1.05.35-1.09.18c-.24,0-.56-.09-1-.18s-.95-.22-1.59-.39l-1-.52-1.22-1.23-1.09-1.31L176,61.17,174.58,60l-2.09-.74L170,58.81l-2,.66-1.4.61-1.36,1.22-1,1.22-.7,1.36-.74,1.92-.39,2-.18,2.09v1.71l.22,1.91.4,1.66.56,1.53.7,1.14.92,1.13,1.44,1.54,1.44,1.26,1.57,1,1.71.83,1.44.44,2.14.39,1.27,0h2.22l.33-.06.15,0,.09-6.86-.31-1.83-.65-1.79-1-1-1.26-.82-1.36-.14L173.1,72a5.81,5.81,0,0,0-1.49.92l-.74.74-1.09,1.4-1.13,3L164,74.92l1.79-3.09,1.17-.92,1-.83,1.14-.65,1.22-.18,1.4-.13,3,.44,3.36.83,3.71.78,2.45.35,1.66,0h1.71l2.61-.36.31,1.18Z"/><path class="cls-19" d="M171.61,56.5h0m0,0c-.08,0,0,0,.13,0l.88.06,1.88.13,1.83.49,1.75.61,3.27,1.7a4.9,4.9,0,0,1,.48.22l.61.3,1.1.22,1.18-.26,1.13-.44,1.66-1.18-.13,3.28L187,63l-.35,1.09-.65.88-.7.65-1.05.35-1.09.18c-.24,0-.56-.09-1-.18s-.95-.22-1.59-.39l-1-.52-1.22-1.23-1.09-1.31L176,61.17,174.58,60l-2.09-.74L170,58.81l-2,.66-1.4.61-1.36,1.22-1,1.22-.7,1.36-.74,1.92-.39,2-.18,2.09v1.71l.22,1.91.4,1.66.56,1.53.7,1.14.92,1.13,1.44,1.54,1.44,1.26,1.57,1,1.71.83,1.44.44,2.14.39,1.27,0h2.22l.33-.06.15,0,.09-6.86-.31-1.83-.65-1.79-1-1-1.26-.82-1.36-.14L173.1,72a5.81,5.81,0,0,0-1.49.92l-.74.74-1.09,1.4-1.13,3L164,74.92l1.79-3.09,1.17-.92,1-.83,1.14-.65,1.22-.18,1.4-.13,3,.44,3.36.83,3.71.78,2.45.35,1.66,0h1.71l2.61-.36.31,1.18L188,73l-.83.47-.74.53-.31.88-.17,1.17,0,5.29.13,1.27.22.78a5.58,5.58,0,0,0,1.18.74l1.57.14-4.67,2.35-2.8,1.14-2.18.83-2.1.57-2,.48-1.53.26-2.36.08-3.15-.26-1.57-.3L165.37,89l-1.71-.78-1.35-.88-1.18-.83-1.09-1L159,84.32l-1.27-1.66-1.75-3-.52-1.44c-.06-.24-.13-.5-.22-.81s-.19-.66-.31-1.07l-.21-1.66-.09-2c0-.18.06-.42.09-.73s.07-.67.13-1.11a7.64,7.64,0,0,1,.31-1.84l.69-2,.88-1.93,1-1.53L159,62l1.39-1.27,1.88-1.39,1.88-1,2.4-1,2-.48,2-.39h1m15.9,1.87h0M171.62,55.5h-1.2l-2,.4-2,.49-.16.05-2.4,1-.07,0-1.88,1-.14.08-1.87,1.4-.08.06-1.4,1.27-.1.11L157,63l0,.07-1.05,1.53a1.09,1.09,0,0,0-.08.15l-.88,1.92,0,.09-.7,2a.19.19,0,0,0,0,.07,8.81,8.81,0,0,0-.34,2c-.06.43-.1.8-.13,1.1a5.94,5.94,0,0,1-.08.66,1.27,1.27,0,0,0,0,.2l.09,2a.25.25,0,0,0,0,.08l.21,1.66,0,.14.07.24.24.83c.09.3.15.56.21.79l0,.09L155,80a.8.8,0,0,0,.08.16l1.75,3,.07.09,1.26,1.66.08.09,1.09,1.14,1.12,1.07a.52.52,0,0,0,.11.1l1.18.83,1.39.9.12.06,1.71.79.11,0,1.35.44.12,0,1.57.31h.11l3.14.26h.12l2.36-.08.14,0,1.52-.26h.07l2-.48,2.12-.58.1,0L182,88.7l2.82-1.14.07,0,4.67-2.35a1,1,0,0,0-.36-1.89l-1.37-.12c-.29-.15-.48-.27-.59-.34l-.11-.39L187,81.29l0-5.16.15-1,.17-.49.44-.31.67-.39,2.35-.58a1,1,0,0,0,.62-.45,1,1,0,0,0,.11-.77L191.14,71a1,1,0,0,0-1-.75H190l-2.55.35h-1.64l-1.58,0-2.35-.33-3.68-.78-3.33-.82-.09,0-3-.44h-.24l-1.4.14-1.27.18a.9.9,0,0,0-.36.12l-1.14.65-.13.1-1,.83-1.15.9a1,1,0,0,0-.25.29l-1.38,2.38-.09-.4-.21-1.8V69.9l.17-2,.36-1.83.7-1.79.62-1.21L166,62l1.18-1.06,1.21-.53,1.68-.56,2.2.38,1.85.65,1.22,1,1.25,1.25,1.06,1.27.06.07,1.23,1.22a1.08,1.08,0,0,0,.24.18l1,.54a.58.58,0,0,0,.17.06c.64.18,1.2.32,1.65.41s.83.16,1.07.19h.12l.15,0,1.1-.17.16,0,1-.35a1.07,1.07,0,0,0,.37-.22l.7-.65.12-.13.65-.88a.89.89,0,0,0,.15-.29l.35-1.1.37-1.35a.83.83,0,0,0,0-.22l.13-3.21v-.11a1,1,0,0,0-1-1h0a1,1,0,0,0-.58.2l-1.55,1.1-.94.36-.91.2-.75-.15-.31-.16-.18-.09-.51-.23-3.23-1.68-.13-.06-1.75-.61-.07,0-1.84-.48a.57.57,0,0,0-.18,0l-1.88-.13-.83-.06-.24,0Zm0,2h0ZM173.36,73l.86-.06,1,.1,1,.64.77.74.54,1.48.28,1.66-.08,5.86H176l-1.17,0-2-.36-1.31-.4L170,81.82l-1.45-.89-1.34-1.17-1.39-1.47-.85-1.06-.51-.82,3.69,2.44a1,1,0,0,0,.55.17,1.12,1.12,0,0,0,.31,0,1,1,0,0,0,.63-.59l1.07-2.83,1-1.22.7-.7a4.32,4.32,0,0,1,1-.65Z"/><path class="cls-3" d="M171.61,56.5h0m0,0c-.08,0,0,0,.13,0l.88.06,1.88.13,1.83.49,1.75.61,3.27,1.7a4.9,4.9,0,0,1,.48.22l.61.3,1.1.22,1.18-.26,1.13-.44,1.66-1.18-.13,3.28L187,63l-.35,1.09-.65.88-.7.65-1.05.35-1.09.18c-.24,0-.56-.09-1-.18s-.95-.22-1.59-.39l-1-.52-1.22-1.23-1.09-1.31L176,61.17,174.58,60l-2.09-.74L170,58.81l-2,.66-1.4.61-1.36,1.22-1,1.22-.7,1.36-.74,1.92-.39,2-.18,2.09v1.71l.22,1.91.4,1.66.56,1.53.7,1.14.92,1.13,1.44,1.54,1.44,1.26,1.57,1,1.71.83,1.44.44,2.14.39,1.27,0h2.22l.33-.06.15,0,.09-6.86-.31-1.83-.65-1.79-1-1-1.26-.82-1.36-.14L173.1,72a5.81,5.81,0,0,0-1.49.92l-.74.74-1.09,1.4-1.13,3L164,74.92l1.79-3.09,1.17-.92,1-.83,1.14-.65,1.22-.18,1.4-.13,3,.44,3.36.83,3.71.78,2.45.35,1.66,0h1.71l2.61-.36.31,1.18L188,73l-.83.47-.74.53-.31.88-.17,1.17,0,5.29.13,1.27.22.78a5.58,5.58,0,0,0,1.18.74l1.57.14-4.67,2.35-2.8,1.14-2.18.83-2.1.57-2,.48-1.53.26-2.36.08-3.15-.26-1.57-.3L165.37,89l-1.71-.78-1.35-.88-1.18-.83-1.09-1L159,84.32l-1.27-1.66-1.75-3-.52-1.44c-.06-.24-.13-.5-.22-.81s-.19-.66-.31-1.07l-.21-1.66-.09-2c0-.18.06-.42.09-.73s.07-.67.13-1.11a7.64,7.64,0,0,1,.31-1.84l.69-2,.88-1.93,1-1.53L159,62l1.39-1.27,1.88-1.39,1.88-1,2.4-1,2-.48,2-.39h1m15.9,1.87h0m-15.89-2.62h-1.16l-2,.39-2.05.49-.11,0-2.4,1-.05,0-1.88,1-.11.06L160,60.13l-.06,0-1.4,1.27-.08.08-1.31,1.61,0,0-1.05,1.53a.41.41,0,0,0-.07.11l-.87,1.93,0,.06-.69,2,0,0a9.08,9.08,0,0,0-.33,2c-.06.43-.1.8-.13,1.1s0,.51-.08.68a.76.76,0,0,0,0,.15l.09,2v.07l.22,1.65s0,.08,0,.11l.07.24.24.83c.09.31.16.57.21.79l0,.07.52,1.44a.31.31,0,0,0,.06.13L157,83l.05.07,1.26,1.66.06.07L159.5,86,160.61,87l.09.07,1.18.84,1.38.89.09,0,1.7.78.09,0,1.35.43.09,0,1.57.3h.08l3.15.26h.08l2.36-.08h.1l1.53-.26,2.06-.49,2.12-.58.07,0,2.18-.83,2.81-1.14.06,0L189.42,85a.77.77,0,0,0,.4-.82.74.74,0,0,0-.67-.6l-1.43-.12A6.18,6.18,0,0,1,187,83l-.14-.5-.12-1.16,0-5.2.15-1,.21-.59.52-.36.7-.41,2.39-.59a.76.76,0,0,0,.46-.34.72.72,0,0,0,.09-.57L190.9,71a.75.75,0,0,0-.72-.57h-.11l-2.56.35h-1.66l-1.6,0-2.38-.34-3.68-.78-3.34-.82h-.07l-3-.44h-.18l-1.4.14-1.26.17a.82.82,0,0,0-.26.1l-1.14.65-.1.07-1,.83-1.16.91a.72.72,0,0,0-.18.21l-1.7,2.93-.24-1L163,71.52V69.89l.17-2,.37-1.86.71-1.82.64-1.25.92-1.12,1.22-1.1,1.26-.55,1.75-.59,2.29.4,1.9.67,1.27,1.07L176.74,63l1.07,1.28,0,0,1.22,1.23.19.13,1,.54.12,0c.65.18,1.2.31,1.64.41s.81.15,1,.18h.21l1.09-.18a.27.27,0,0,0,.12,0l1-.35a.74.74,0,0,0,.27-.16l.7-.66.09-.09.65-.88a.94.94,0,0,0,.12-.22l.34-1.09.37-1.35a.88.88,0,0,0,0-.16l.13-3.22v-.09a.75.75,0,0,0-.75-.75h0a.8.8,0,0,0-.43.15l-1.58,1.12-1,.38-1,.22-.84-.17-.35-.17-.17-.09-.5-.23-3.25-1.69-.1,0-1.74-.61-.06,0L174.69,56l-.14,0-1.88-.14-.85-.06-.2,0Zm0,1.5h0Zm1.69,15.49.93-.07,1.1.1,1,.69.83.8.57,1.56.29,1.7L178,83.65h-2l-1.19,0-2.05-.37-1.34-.41L169.83,82l-1.48-.9L167,79.94l-1.4-1.49-.87-1.07-.63-1-.22-.6,4.38,2.91a.75.75,0,0,0,.41.12.59.59,0,0,0,.23,0,.71.71,0,0,0,.47-.44l1.09-2.86,1-1.27.71-.71a4.51,4.51,0,0,1,1.16-.71Z"/><path class="cls-20" d="M212.78,90.13V88.69a7.09,7.09,0,0,0,.9-.07l1-.15.62-.31.52-.52,0-.66a3.21,3.21,0,0,0-.22-1.27L213,78.29l-13,5.55-.7,1.92-.48,1.13-.08.75a2.89,2.89,0,0,0,1,.83l1.71.17-.05,1.49h-9.43V88.69l1.35-.22,1.31-.44.92-.74.83-.83,10.18-23.59-.18-1-.39-.69L204.4,61l.87-.83,1.22-.79,3.06-1.18,3.45-.61h3.14c-.26.26-.46.48-.61.65a4.26,4.26,0,0,0-.35.51,1.49,1.49,0,0,0-.15.52c0,.19,0,.43,0,.72v.57l9.52,25.94L226,87.9l1.75.79v1.44Zm-4.85-25-4.71,10.92,7.51-3.27Z"/><path class="cls-21" d="M216.14,57.59c-.26.26-.46.48-.61.65a4.26,4.26,0,0,0-.35.51,1.49,1.49,0,0,0-.15.52c0,.19,0,.43,0,.72v.57l9.52,25.94L226,87.9l1.75.79v1.44H212.78V88.69a7.09,7.09,0,0,0,.9-.07l1-.15.62-.31.52-.52,0-.66a3.21,3.21,0,0,0-.22-1.27L213,78.29l-13,5.55-.7,1.92-.48,1.13-.08.75a2.89,2.89,0,0,0,1,.83l1.71.17-.05,1.49h-9.43V88.69l1.35-.22,1.31-.44.92-.74.83-.83,10.18-23.59-.18-1-.39-.69L204.4,61l.87-.83,1.22-.79,3.06-1.18,3.45-.61h3.14M203.22,76.06l7.51-3.27-2.8-7.65-4.71,10.92m12.92-19.47h-3.32l-3.44.62a.59.59,0,0,0-.19.05l-3.06,1.17-.18.1-1.22.78-.15.12-.87.83a1,1,0,0,0,.56,1.72l1.2.15.07.12.09.5-10,23.12-.66.66-.73.6-1.07.35-1.27.21a1,1,0,0,0-.84,1v1.44a1,1,0,0,0,1,1h9.43a1,1,0,0,0,1-1l.05-1.48a1,1,0,0,0-.9-1l-1.51-.16a2.23,2.23,0,0,1-.3-.2l0-.14.43-1s0,0,0-.05l.55-1.51,11.6-5,2.26,6.42a2.15,2.15,0,0,1,.16.84l0,.31-.14.14-.32.16-.86.13a5,5,0,0,1-.76.06,1,1,0,0,0-1,1v1.44a1,1,0,0,0,1,1h14.94a1,1,0,0,0,1-1V88.69a1,1,0,0,0-.59-.91l-1.59-.72-1.15-1.12L216,60.38V60c0-.26,0-.48,0-.65a.2.2,0,0,1,0-.11,2.76,2.76,0,0,1,.24-.35c.13-.15.32-.36.55-.58a1,1,0,0,0-.71-1.71Zm0,2h0Zm-11,15.54,2.72-6.29,1.6,4.41-4.32,1.88Z"/><path class="cls-3" d="M216.14,57.59c-.26.26-.46.48-.61.65a4.26,4.26,0,0,0-.35.51,1.49,1.49,0,0,0-.15.52c0,.19,0,.43,0,.72v.57l9.52,25.94L226,87.9l1.75.79v1.44H212.78V88.69a7.09,7.09,0,0,0,.9-.07l1-.15.62-.31.52-.52,0-.66a3.21,3.21,0,0,0-.22-1.27L213,78.29l-13,5.55-.7,1.92-.48,1.13-.08.75a2.89,2.89,0,0,0,1,.83l1.71.17-.05,1.49h-9.43V88.69l1.35-.22,1.31-.44.92-.74.83-.83,10.18-23.59-.18-1-.39-.69L204.4,61l.87-.83,1.22-.79,3.06-1.18,3.45-.61h3.14M203.22,76.06l7.51-3.27-2.8-7.65-4.71,10.92m12.92-19.22h-3.27l-3.45.61-.14,0-3.06,1.18-.14.07-1.22.78-.11.09-.87.83a.75.75,0,0,0-.2.78.76.76,0,0,0,.62.51l1.33.17.15.26.11.61L195.86,86l-.7.7-.78.63-1.13.38L192,88a.74.74,0,0,0-.63.74v1.44a.75.75,0,0,0,.75.75h9.43a.75.75,0,0,0,.75-.73l.05-1.49a.76.76,0,0,0-.68-.77l-1.56-.16a2.24,2.24,0,0,1-.48-.33l0-.31.45-1,.6-1.65,11.93-5.11L215,86a2.33,2.33,0,0,1,.17,1l0,.4-.24.23-.4.2-.9.14a5.25,5.25,0,0,1-.79.06.75.75,0,0,0-.75.75v1.44a.76.76,0,0,0,.75.75h14.94a.76.76,0,0,0,.75-.75V88.69A.77.77,0,0,0,228,88l-1.63-.73-1.23-1.19-9.41-25.66V60c0-.27,0-.49,0-.66a.64.64,0,0,1,.06-.22,2,2,0,0,1,.27-.39c.13-.16.33-.37.56-.6a.75.75,0,0,0-.53-1.28Zm0,1.5h0ZM204.66,74.62l3.22-7.45,1.9,5.21-5.12,2.24Z"/><path class="cls-22" d="M260.86,86l-1.35,1.83-1.14,1.75-.75,1.49-.57,1.79a15.65,15.65,0,0,0-.75-2.1l-.92-1.35-17.1-24,.26,13.41.36,5.32.26,1.62.3,1.18.4.87.43.48.48.22.7.13h.66l0,1.49h-9.43V88.69l.87,0,.7-.22.61-.61.53-1.14.43-2.27.31-3,.13-4.19.09-5.46,0-7.08a6.89,6.89,0,0,0-1.62-1.61,13.62,13.62,0,0,0-2.18-.83l.61-1.18.79-1.18,1.26-.92,1.27-.78,3.16-1,3.29-.35.26,2a7.23,7.23,0,0,0,.31.75c.14.32.34.73.57,1.22L258,79.21l0-9.13-.18-2.75-.13-2.62-.26-2L257,61.39l-.39-.92-.53-.57-.44-.22-.65-.13-.74,0-.09-1.62h9.56v1.66h-1l-.82.31-.62.83-.52,1.49-.39,2.53-.27,3.75L260,73.71v6.94l1.49,1.53a11.27,11.27,0,0,0,2.18.92Z"/><path class="cls-23" d="M242.94,56.85l.26,2a7.23,7.23,0,0,0,.31.75c.14.32.34.73.57,1.22L258,79.21l0-9.13-.18-2.75-.13-2.62-.26-2L257,61.39l-.39-.92-.53-.57-.44-.22-.65-.13-.74,0-.09-1.62h9.56v1.66h-1l-.82.31-.62.83-.52,1.49-.39,2.53-.27,3.75L260,73.71v6.94l1.49,1.53a11.27,11.27,0,0,0,2.18.92L260.86,86l-1.35,1.83-1.14,1.75-.75,1.49-.57,1.79a15.65,15.65,0,0,0-.75-2.1l-.92-1.35-17.1-24,.26,13.41.36,5.32.26,1.62.3,1.18.4.87.43.48.48.22.7.13h.66l0,1.49h-9.43V88.69l.87,0,.7-.22.61-.61.53-1.14.43-2.27.31-3,.13-4.19.09-5.46,0-7.08a6.89,6.89,0,0,0-1.62-1.61,13.62,13.62,0,0,0-2.18-.83l.61-1.18.79-1.18,1.26-.92,1.27-.78,3.16-1,3.29-.35m-.81,31.79h0m.81-32.79h-.11l-3.29.35-.18,0-3.16,1a.7.7,0,0,0-.23.11l-1.27.78-.06,0-1.27.92a1,1,0,0,0-.24.26l-.79,1.17a.47.47,0,0,0-.05.1l-.62,1.18a1,1,0,0,0,0,.84,1,1,0,0,0,.61.57,13.77,13.77,0,0,1,2,.73A5.22,5.22,0,0,1,235.36,65l0,6.72-.09,5.45-.13,4.15-.3,2.93-.4,2.11-.4.86-.31.31-.35.11-.75,0a1,1,0,0,0-.94,1v1.44a1,1,0,0,0,1,1h9.43a1,1,0,0,0,1-1l0-1.41a.34.34,0,0,0,0-.1,1,1,0,0,0-1-1h-.57l-.48-.09-.19-.08-.19-.21-.29-.66-.28-1L239.89,84l-.35-5.28-.19-10.13L254.57,90l.89,1.3c0,.11.2.49.64,1.87a1,1,0,0,0,.95.7h0a1,1,0,0,0,.95-.7l.55-1.71.68-1.37,1.1-1.67,1.3-1.76,2.75-2.88a1,1,0,0,0-.39-1.64,13.76,13.76,0,0,1-1.88-.75L261,80.24V73.71l.17-5.21.26-3.68.37-2.4.45-1.26.34-.47.38-.14h.78a1,1,0,0,0,1-1V57.89a1,1,0,0,0-1-1h-9.56a1,1,0,0,0-1,1.06l.09,1.61a1,1,0,0,0,.94.95l.67,0,.46.09.15.08.29.3.29.69.31,1.23.25,1.86.13,2.58.18,2.73,0,6.1-12-15.91-.14-.3c-.15-.31-.28-.59-.38-.82s-.19-.43-.24-.56l-.25-1.9a1,1,0,0,0-1-.87Z"/><path class="cls-3" d="M242.94,56.85l.26,2a7.23,7.23,0,0,0,.31.75c.14.32.34.73.57,1.22L258,79.21l0-9.13-.18-2.75-.13-2.62-.26-2L257,61.39l-.39-.92-.53-.57-.44-.22-.65-.13-.74,0-.09-1.62h9.56v1.66h-1l-.82.31-.62.83-.52,1.49-.39,2.53-.27,3.75L260,73.71v6.94l1.49,1.53a11.27,11.27,0,0,0,2.18.92L260.86,86l-1.35,1.83-1.14,1.75-.75,1.49-.57,1.79a15.65,15.65,0,0,0-.75-2.1l-.92-1.35-17.1-24,.26,13.41.36,5.32.26,1.62.3,1.18.4.87.43.48.48.22.7.13h.66l0,1.49h-9.43V88.69l.87,0,.7-.22.61-.61.53-1.14.43-2.27.31-3,.13-4.19.09-5.46,0-7.08a6.89,6.89,0,0,0-1.62-1.61,13.62,13.62,0,0,0-2.18-.83l.61-1.18.79-1.18,1.26-.92,1.27-.78,3.16-1,3.29-.35m-.81,31.79h0m.81-32.54h-.08l-3.29.35-.14,0-3.16,1a.53.53,0,0,0-.17.08l-1.27.79s0,0-.05,0l-1.26.91a.86.86,0,0,0-.19.19l-.78,1.18a.25.25,0,0,0,0,.07l-.61,1.18a.7.7,0,0,0,0,.63.73.73,0,0,0,.46.43,12.48,12.48,0,0,1,2,.76,5.39,5.39,0,0,1,1.26,1.23l0,6.82-.09,5.45-.13,4.15-.3,3-.41,2.15-.43.94-.39.38-.43.14-.78,0a.75.75,0,0,0-.71.75v1.44a.75.75,0,0,0,.75.75h9.43a.75.75,0,0,0,.75-.73l0-1.43a.19.19,0,0,0,0-.08.75.75,0,0,0-.75-.75h-.59l-.54-.1-.26-.12-.25-.28-.32-.7-.28-1.09-.25-1.54-.35-5.29-.21-11,15.69,22,.91,1.33c0,.08.19.44.66,1.91a.74.74,0,0,0,.71.53h0a.75.75,0,0,0,.72-.53l.55-1.73L259,90l1.11-1.72,1.31-1.76,2.76-2.89a.74.74,0,0,0-.29-1.22,13.72,13.72,0,0,1-2-.79l-1.22-1.25V73.71l.17-5.22.26-3.7.38-2.43L262,61l.42-.55.49-.19h.82a.74.74,0,0,0,.75-.75V57.89a.75.75,0,0,0-.75-.75h-9.56a.77.77,0,0,0-.55.24.76.76,0,0,0-.2.56l.09,1.61a.75.75,0,0,0,.7.71l.69,0,.51.1.22.11.35.37.32.75.32,1.26.25,1.89.13,2.59.18,2.76,0,6.83-12.5-16.53-.15-.32-.38-.82c-.12-.27-.2-.47-.25-.61l-.26-1.93a.74.74,0,0,0-.74-.65Z"/></g></g></svg>