<svg xmlns="http://www.w3.org/2000/svg" xmlns:xlink="http://www.w3.org/1999/xlink" viewBox="0 0 43.11 60.25"><defs><style>.cls-1{fill:url(#New_Gradient_Swatch_1);}.cls-2{fill:url(#New_Gradient_Swatch_1-2);}.cls-3{fill:#ffe99d;}</style><linearGradient id="New_Gradient_Swatch_1" x1="21.55" y1="1" x2="21.55" y2="59.25" gradientUnits="userSpaceOnUse"><stop offset="0" stopColor="#7f3644"/><stop offset="1" stopColor="#b8595a"/></linearGradient><linearGradient id="New_Gradient_Swatch_1-2" x1="21.55" y1="60.25" x2="21.55" y2="0" xlink:href="#New_Gradient_Swatch_1"/></defs><g id="Layer_2" data-name="Layer 2"><g id="Layer_1-2" data-name="Layer 1"><path class="cls-1" d="M26.39,21.36V53.79l.32,2a3,3,0,0,1,.16.44,3.93,3.93,0,0,0,.39.76l1.09.38,1.31.06-.11,1.85H12v-1.8l1.42-.05L14.48,57l.5-1.2.27-2-.06-30.57L5.75,8.75l-.63-.9a4.34,4.34,0,0,0-.46-.57c-.15-.18-.3-.38-.47-.6A5.46,5.46,0,0,0,3.56,6L2.26,5.2,1,4.77l1.31-.93L3.89,3,7.82,1.76l4.37-.71L16,1l-.65,1-.22,1.2.38,1.31.6,1L24.86,18l2.4-3.6,1.58-3.49L29.5,8.1V6.57l-.06-.88a5.53,5.53,0,0,0-1-1.36l2.35-.93,2.45-.87L35.56,2l2.73-.49,3.82-.28Z"/><path class="cls-2" d="M16,1h0m0,0-.65,1-.22,1.2.38,1.31.6,1L24.86,18l2.4-3.6,1.58-3.49L29.5,8.1V6.57l-.06-.88a5.53,5.53,0,0,0-1-1.36l2.35-.93,2.45-.87L35.56,2l2.73-.49,3.82-.28L26.39,21.36V53.79l.32,2a3,3,0,0,1,.16.44,3.93,3.93,0,0,0,.39.76l1.09.38,1.31.06-.11,1.85H12v-1.8l1.42-.05L14.48,57l.5-1.2.27-2-.06-30.57L5.75,8.75l-.63-.9a4.34,4.34,0,0,0-.46-.57c-.15-.18-.3-.38-.47-.6A5.46,5.46,0,0,0,3.56,6L2.26,5.2,1,4.77l1.31-.93L3.89,3,7.82,1.76l4.37-.71L16,1m0-1h0L12.18.05,12,.07,7.66.78l-.14,0L3.59,2.07a.76.76,0,0,0-.16.06L1.85,3,1.73,3,.42,4a1,1,0,0,0-.41,1,1,1,0,0,0,.66.8l1.17.41L3,6.76a4.52,4.52,0,0,1,.44.52c.18.23.33.44.49.62A.27.27,0,0,0,4,8a5.2,5.2,0,0,1,.35.44l.45.65.18.25L14.2,23.46l.05,30.21L14,55.5l-.28.69-.54.21-1.25.05a1,1,0,0,0-1,1v1.8a1,1,0,0,0,1,1H29.55a1,1,0,0,0,1-.94l.11-1.86a1,1,0,0,0-1-1.05l-1.16,0-.6-.21a2.31,2.31,0,0,1-.12-.27c-.06-.18-.1-.31-.14-.4l-.29-1.76v-32L42.9,1.89A1,1,0,0,0,42.11.27H42L38.22.55h-.11l-2.73.49-2.33.5-.12,0-2.46.87-2.38.94a1,1,0,0,0-.61.73,1,1,0,0,0,.27.91,4.28,4.28,0,0,1,.71.94l0,.62V8l-.61,2.63-1.51,3.33-1.54,2.32L17,5l-.52-.89-.28-1,.14-.77.51-.76A1,1,0,0,0,17,1a1,1,0,0,0-1-1Zm0,2h0Z"/><path class="cls-3" d="M16,1h0m0,0-.65,1-.22,1.2.38,1.31.6,1L24.86,18l2.4-3.6,1.58-3.49L29.5,8.1V6.57l-.06-.88a5.53,5.53,0,0,0-1-1.36l2.35-.93,2.45-.87L35.56,2l2.73-.49,3.82-.28L26.39,21.36V53.79l.32,2a3,3,0,0,1,.16.44,3.93,3.93,0,0,0,.39.76l1.09.38,1.31.06-.11,1.85H12v-1.8l1.42-.05L14.48,57l.5-1.2.27-2-.06-30.57L5.75,8.75l-.63-.9a4.34,4.34,0,0,0-.46-.57c-.15-.18-.3-.38-.47-.6A5.46,5.46,0,0,0,3.56,6L2.26,5.2,1,4.77l1.31-.93L3.89,3,7.82,1.76l4.37-.71L16,1m0-.75h0L12.18.3h-.11L7.7,1l-.1,0L3.66,2.3l-.11.05L2,3.17l-.09.06L.57,4.16a.74.74,0,0,0-.31.71.77.77,0,0,0,.49.61l1.19.41,1.16.68a4.54,4.54,0,0,1,.49.56c.18.22.33.43.48.62l.06.06a3.62,3.62,0,0,1,.38.47L5,8.93l.17.25,9.32,14.21.05,30.3-.25,1.87-.34.82-.68.27-1.29.05a.76.76,0,0,0-.72.75v1.8A.75.75,0,0,0,12,60H29.55a.75.75,0,0,0,.75-.7l.11-1.86a.79.79,0,0,0-.19-.55.73.73,0,0,0-.53-.24l-1.2,0-.73-.26a2.2,2.2,0,0,1-.18-.39c-.06-.2-.11-.32-.14-.41l-.3-1.81V21.62L42.7,1.74a.76.76,0,0,0,.07-.82.75.75,0,0,0-.66-.4h0L38.23.8h-.07l-2.74.49-2.31.49-.1,0-2.45.87-2.38.94a.76.76,0,0,0-.45.55.74.74,0,0,0,.2.68,5,5,0,0,1,.77,1l.05.7V8l-.62,2.68L26.6,14.07,24.84,16.7,16.76,5.13l-.54-.93-.31-1.06.16-.87.54-.82A.7.7,0,0,0,16.76,1,.75.75,0,0,0,16,.25Zm0,1.5h0Z"/></g></g></svg>