<svg width="13" height="15" viewBox="0 0 13 15" fill="none" xmlns="http://www.w3.org/2000/svg">
<path fill-rule="evenodd" clip-rule="evenodd" d="M1.8734 0.994548C1.85249 0.788644 1.8481 0.568309 1.90931 0.527503C1.99973 0.467217 2.49458 0.150715 2.7307 0L3.87613 0.437074C4.04091 0.545286 4.30923 0.825905 4.09406 1.09787V14.0013H1.68262V0.994548H1.8734Z" fill="#ED3C3C"/>
<path d="M6.25646 0.995404H0V2.8266C0 2.8266 2.40569 2.92456 3.00855 3.63292C4.43281 2.57038 5.6536 2.7437 6.91207 3.4596C8.17054 4.1755 7.76361 5.85095 7.4019 6.62462L9.27077 10.498C10.4916 8.86274 13.1215 5.74294 12.368 0.0458984C10.68 0.684931 7.59029 0.945165 6.25646 0.995404Z" fill="#ED3C3C"/>
<path d="M8.50098 11.1802C8.50098 12.1852 7.60555 13 6.50098 13C5.39641 13 4.50098 12.1852 4.50098 11.1802C4.50098 10.1751 6.50098 7 6.50098 7C6.50098 7 8.50098 10.1751 8.50098 11.1802Z" fill="#ED3C3C"/>
</svg>
